<svg xmlns="http://www.w3.org/2000/svg" width="40" height="40" viewBox="0 0 40 40">
  <g id="Group_60" data-name="Group 60" transform="translate(-324 -431)">
    <circle id="Ellipse_2" data-name="Ellipse 2" cx="20" cy="20" r="20" transform="translate(324 431)" fill="#fdd9d6"/>
    <g id="Group_36" data-name="Group 36">
      <path id="Path_9" data-name="Path 9" d="M22.163,3.991a7.057,7.057,0,0,1-5.778-2.715.6.6,0,0,0-1.009,0A7.057,7.057,0,0,1,9.6,3.991a.6.6,0,0,0-.6.6v5.983c0,4.145,4.019,7.081,6.735,7.76a.6.6,0,0,0,.29,0c2.716-.679,6.735-3.615,6.735-7.76V4.589A.6.6,0,0,0,22.163,3.991Zm-6.282,9.872a4.188,4.188,0,1,1,4.188-4.188A4.188,4.188,0,0,1,15.881,13.863Z" transform="translate(327.857 441.325)" fill="#f44336"/>
      <path id="Path_13" data-name="Path 13" d="M160.106,159.388a.507.507,0,1,1-.718.718l-1.525-1.525-1.525,1.525a.507.507,0,1,1-.718-.718l1.525-1.525-1.525-1.525a.508.508,0,1,1,.718-.718l1.525,1.525,1.525-1.525a.507.507,0,1,1,.718.718l-1.525,1.525Zm0,0" transform="translate(185.969 293.139)" fill="#f44336"/>
    </g>
  </g>
</svg>
