<svg xmlns="http://www.w3.org/2000/svg" width="40" height="40" viewBox="0 0 40 40">
  <g id="Group_57" data-name="Group 57" transform="translate(-139 -477)">
    <circle id="Ellipse_1" data-name="Ellipse 1" cx="20" cy="20" r="20" transform="translate(139 477)" fill="#defdf3"/>
    <g id="verify" transform="translate(149.85 488.22)">
      <g id="Layer_2_87_" transform="translate(0 0)">
        <path id="Path_8" data-name="Path 8" d="M16.69,19.413a3.029,3.029,0,0,1-.618-.551A2.83,2.83,0,0,1,16.248,18a2.369,2.369,0,0,0-.03-2.1,2.382,2.382,0,0,0-2-.68,2.936,2.936,0,0,1-.855-.092,2.906,2.906,0,0,1-.348-.777c-.228-.651-.513-1.461-1.275-1.708a2.317,2.317,0,0,0-1.989.618,2.787,2.787,0,0,1-.782.44,2.782,2.782,0,0,1-.782-.44,2.319,2.319,0,0,0-1.989-.618c-.762.248-1.047,1.057-1.275,1.708a2.963,2.963,0,0,1-.344.775,2.87,2.87,0,0,1-.859.095,2.382,2.382,0,0,0-2,.68,2.37,2.37,0,0,0-.03,2.1,2.91,2.91,0,0,1,.177.854,2.924,2.924,0,0,1-.62.556C.687,19.834,0,20.359,0,21.171s.687,1.336,1.24,1.758a3.029,3.029,0,0,1,.618.551,2.83,2.83,0,0,1-.175.859,2.369,2.369,0,0,0,.03,2.1,2.383,2.383,0,0,0,2,.68,2.936,2.936,0,0,1,.855.092,2.907,2.907,0,0,1,.348.777c.229.651.513,1.461,1.275,1.708a1.342,1.342,0,0,0,.418.067,2.958,2.958,0,0,0,1.57-.685,2.786,2.786,0,0,1,.782-.44,2.783,2.783,0,0,1,.782.44,2.32,2.32,0,0,0,1.989.618c.762-.248,1.047-1.057,1.275-1.708a2.963,2.963,0,0,1,.344-.775,2.87,2.87,0,0,1,.859-.095,2.382,2.382,0,0,0,2-.68,2.37,2.37,0,0,0,.03-2.1,2.91,2.91,0,0,1-.177-.854,2.924,2.924,0,0,1,.62-.556c.552-.421,1.24-.946,1.24-1.758s-.687-1.336-1.24-1.758Zm-4.4.418L8.56,23.567a.747.747,0,0,1-1.056,0h0L5.635,21.7a.747.747,0,1,1,1.043-1.07l.013.013,1.34,1.34,3.207-3.207a.747.747,0,0,1,1.07,1.043Z" transform="translate(0 -12.575)" fill="#5ec08e"/>
      </g>
    </g>
  </g>
</svg>
