<svg xmlns="http://www.w3.org/2000/svg" width="40" height="40" viewBox="0 0 40 40">
  <g id="Group_58" data-name="Group 58" transform="translate(-324 -477)">
    <g id="Group_16" data-name="Group 16" transform="translate(20 -32)">
      <circle id="Ellipse_2" data-name="Ellipse 2" cx="20" cy="20" r="20" transform="translate(304 509)" fill="#defdf3"/>
      <g id="warranty" transform="translate(316.857 520.324)">
        <path id="Path_9" data-name="Path 9" d="M22.163,3.991a7.057,7.057,0,0,1-5.778-2.715.6.6,0,0,0-1.009,0A7.057,7.057,0,0,1,9.6,3.991a.6.6,0,0,0-.6.6v5.983c0,4.145,4.019,7.081,6.735,7.76a.6.6,0,0,0,.29,0c2.716-.679,6.735-3.615,6.735-7.76V4.589A.6.6,0,0,0,22.163,3.991Zm-6.282,9.872a4.188,4.188,0,1,1,4.188-4.188A4.188,4.188,0,0,1,15.881,13.863Z" transform="translate(-9 -0.999)" fill="#5ec08e"/>
        <path id="Path_10" data-name="Path 10" d="M23.2,26.786a.648.648,0,0,1-.1-.007.6.6,0,0,1-.439-.323l-.6-1.2a.6.6,0,0,1,1.07-.535l.227.454,3-3a.6.6,0,1,1,.846.846l-3.59,3.59A.6.6,0,0,1,23.2,26.786Z" transform="translate(-18.11 -15.718)" fill="#5ec08e"/>
      </g>
    </g>
  </g>
</svg>
